:SAMPLES-PER-SECOND 30
:FULLY-SPECIFIED
:DEGREES
138
root  5.13077796 37.11022204 9.246688753 2.046020508 -10.98800659 -5.752990723
lowerback  10.55869961 0.4290449917 -7.139820099
upperback  2.546969891 -0.3264600039 -2.811290026
thorax  -3.23397994 -0.1272049993 1.126180053
lowerneck  -7.908649921 3.272619963 -13.76690006
upperneck  10.45479965 4.366909981 16.3708992
head  3.664419889 2.545380116 7.65447998
lclavicle  0 -9.442270133e-015 7.951389973e-016
lhumerus  36.81809998 -37.54000092 61.18700027
lradius  -3.528076795e-032 -3.513455675e-031 84.26580048
lwrist  -7.062250077e-031 -1.765562519e-031 12.13850021
lhand  -1.496451383e-031 -27.76390076 20.11240005
lfingers  90 7.125020027 -90
lthumb  89.89689403 5.08795885 91.16245106
rclavicle  0 -9.442270133e-015 7.951389973e-016
rhumerus  -15.82050037 8.267860413 -48.76160049
rradius  -2.444889124e-031 2.547814987e-031 133.8190002
rwrist  7.062250077e-031 2.648343779e-031 -22.70240021
rhand  -7.920061211e-032 -33.2840004 9.303460121
rfingers  -90 -7.125020027 -90
rthumb  -92.93752616 -24.25625642 -97.11982154
rfemur  8.564720154 12.95629978 23.16500092
rtibia  -0 0 50.22330093
rfoot  -4.425336471e-032 -4.118929863 6.003540039
rtoes  5.373923086 19.29304026 -105.8922705
lfemur  -47.69499969 -9.02173996 6.328929901
ltibia  -0 0 53.37950134
lfoot  -0 5.051849842 -14.79329967
ltoes  -4.250644065 -19.5611806 -102.515957
139
root  5.094688896 37.12555592 9.312733327 2.552001953 -9.225006104 -5.327026367
lowerback  10.17580032 0.9094769955 -7.001719952
upperback  2.735490084 0.3495410085 -3.472630024
thorax  -2.868740082 0.1925289929 0.2757259905
lowerneck  -6.926320076 2.604470015 -14.28610039
upperneck  9.899479866 3.421610117 16.64789963
head  3.466170073 2.036109924 7.767469883
lclavicle  0 -9.442270133e-015 7.951389973e-016
lhumerus  34.93859863 -40.38010025 61.69300079
lradius  -1.562051224e-032 -3.527668351e-031 87.46459961
lwrist  0 -0 11.42319965
lhand  -1.496451383e-031 -27.76390076 20.11240005
lfingers  90 7.125020027 -90
lthumb  89.89689403 5.08795885 91.16245106
rclavicle  0 -9.442270133e-015 7.951389973e-016
rhumerus  -9.955039978 6.018239975 -44.8810997
rradius  -2.359851388e-031 2.626774727e-031 131.9360046
rwrist  7.062250077e-031 8.827812596e-032 -22.11120033
rhand  -7.920061211e-032 -33.2840004 9.303460121
rfingers  -90 -7.125020027 -90
rthumb  -92.93752616 -24.25625642 -97.11982154
rfemur  8.069310188 11.01019955 22.83209991
rtibia  -0 0 50.45230103
rfoot  -4.438755809e-032 -6.065529823 4.315919876
rtoes  5.373923086 19.29304026 -105.8922705
lfemur  -49.3429985 -9.944939613 5.869510174
ltibia  -0 0 53.68190002
lfoot  -0 5.886970043 -14.33740044
ltoes  -4.250644065 -19.5611806 -102.515957
140
root  5.061422183 37.11822089 9.319266372 3.234985352 -7.832992554 -5.278991699
lowerback  9.953820229 1.346050024 -6.389550209
upperback  2.826790094 0.9974129796 -4.066820145
thorax  -2.667690039 0.5059319735 -0.7603449821
lowerneck  -5.745259762 2.213219881 -14.33909988
upperneck  9.196920395 2.824189901 16.53890038
head  3.15715003 1.687190056 7.675789833
lclavicle  0 -9.442270133e-015 7.951389973e-016
lhumerus  32.42409897 -42.45259857 62.37229919
lradius  3.343996344e-033 -3.530966696e-031 90.54260254
lwrist  0 -0 11.01019955
lhand  -1.496451383e-031 -27.76390076 20.11240005
lfingers  90 7.125020027 -90
lthumb  89.89689403 5.08795885 91.16245106
rclavicle  0 -9.442270133e-015 7.951389973e-016
rhumerus  -3.475280046 3.903150082 -41.49909973
rradius  -2.208916415e-031 2.754910581e-031 128.7230072
rwrist  1.412450015e-030 2.648343779e-031 -20.46969986
rhand  -7.920061211e-032 -33.2840004 9.303460121
rfingers  -90 -7.125020027 -90
rthumb  -92.93752616 -24.25625642 -97.11982154
rfemur  7.178500175 9.269470215 22.89900017
rtibia  -0 0 50.78540039
rfoot  -4.458601337e-032 -8.119540215 1.964470029
rtoes  5.373923086 19.29304026 -105.8922705
lfemur  -51.00550079 -10.47669983 5.893539906
ltibia  -0 0 54.02259827
lfoot  -0 6.509260178 -14.05690002
ltoes  -4.250644065 -19.5611806 -102.515957
141
root  5.027044476 37.09111251 9.317355269 3.739013672 -6.79800415 -5.231018066
lowerback  9.963410378 1.809309959 -5.61330986
upperback  2.887959957 1.670609951 -4.701089859
thorax  -2.592269897 0.8371049762 -1.937280059
lowerneck  -4.560349941 2.054100037 -13.99009991
upperneck  8.693039894 2.507450104 16.23189926
head  2.869889975 1.48210001 7.466859818
lclavicle  0 -9.442270133e-015 7.951389973e-016
lhumerus  29.41930008 -43.89039993 63.30390167
lradius  2.087724578e-032 -3.524947957e-031 93.38950348
lwrist  0 -0 10.45890045
lhand  -1.496451383e-031 -27.76390076 20.11240005
lfingers  90 7.125020027 -90
lthumb  89.89689403 5.08795885 91.16245106
rclavicle  0 -9.442270133e-015 7.951389973e-016
rhumerus  3.453079939 1.93513 -38.49440002
rradius  -2.008372789e-031 2.904355828e-031 124.6640015
rwrist  0 -1.765562519e-031 -18.31100082
rhand  -7.920061211e-032 -33.2840004 9.303460121
rfingers  -90 -7.125020027 -90
rthumb  -92.93752616 -24.25625642 -97.11982154
rfemur  6.465819836 7.694049835 22.98159981
rtibia  -0 0 51.12200165
rfoot  -5.602234161e-032 -9.98472023 -1.004480004
rtoes  5.373923086 19.29304026 -105.8922705
lfemur  -52.31290054 -10.90610027 5.93569994
ltibia  -0 0 54.41090012
lfoot  -0 6.882820129 -13.89920044
ltoes  -4.250644065 -19.5611806 -102.515957
142
root  4.985022357 37.05933338 9.341600373 3.945983887 -6.055999756 -5.197021484
lowerback  10.1171999 2.364010096 -4.755139828
upperback  3.016839981 2.467020035 -5.313799858
thorax  -2.485899925 1.231250048 -3.159909964
lowerneck  -3.606100082 1.820180058 -13.68159962
upperneck  8.483909607 2.093600035 15.98219967
head  2.719609976 1.240210056 7.300250053
lclavicle  0 -9.442270133e-015 7.951389973e-016
lhumerus  26.54770088 -44.88499832 64.25450134
lradius  3.557325234e-032 -3.513160743e-031 95.7818985
lwrist  -7.062250077e-031 -1.765562519e-031 10.09850025
lhand  -1.496451383e-031 -27.76390076 20.11240005
lfingers  90 7.125020027 -90
lthumb  89.89689403 5.08795885 91.16245106
rclavicle  0 -9.442270133e-015 7.951389973e-016
rhumerus  9.884619713 -0.2200230062 -36.09759903
rradius  -1.723123834e-031 3.082156435e-031 119.2080002
rwrist  7.062250077e-031 -1.765562519e-031 -16.01849937
rhand  -7.920061211e-032 -33.2840004 9.303460121
rfingers  -90 -7.125020027 -90
rthumb  -92.93752616 -24.25625642 -97.11982154
rfemur  6.149250031 6.28068018 23.09469986
rtibia  -0 0 51.36000061
rfoot  -9.019260666e-032 -11.82629967 -4.263549805
rtoes  5.373923086 19.29304026 -105.8922705
lfemur  -53.13600159 -11.33539963 5.984759808
ltibia  -0 0 54.84640121
lfoot  -0 7.09844017 -13.71350002
ltoes  -4.250644065 -19.5611806 -102.515957
143
root  4.927822173 37.02466769 9.369222386 3.99798584 -5.675994873 -5.281005859
lowerback  10.41629982 3.03392005 -3.900039911
upperback  3.152179956 3.410320044 -5.830289841
thorax  -2.408179998 1.702160001 -4.311719894
lowerneck  -2.753740072 1.459789991 -13.40340042
upperneck  8.31814003 1.517959952 15.78929996
head  2.620729923 0.9237369895 7.161660194
lclavicle  0 -9.442270133e-015 7.951389973e-016
lhumerus  23.84959984 -45.49829865 65.30329895
lradius  4.639226178e-032 -3.500517082e-031 97.54940033
lwrist  -7.062250077e-031 -0 10.03730011
lhand  -1.496451383e-031 -27.76390076 20.11240005
lfingers  90 7.125020027 -90
lthumb  89.89689403 5.08795885 91.16245106
rclavicle  0 -9.442270133e-015 7.951389973e-016
rhumerus  16.22179985 -2.319449902 -34.21580124
rradius  -1.350278219e-031 3.26275846e-031 112.4820023
rwrist  0 -1.765562519e-031 -13.71070004
rhand  -7.920061211e-032 -33.2840004 9.303460121
rfingers  -90 -7.125020027 -90
rthumb  -92.93752616 -24.25625642 -97.11982154
rfemur  5.99751997 5.230259895 23.35569954
rtibia  -0 0 51.43320084
rfoot  -0 -13.90699959 -7.537409782
rtoes  5.373923086 19.29304026 -105.8922705
lfemur  -53.61529922 -11.62479973 6.198560238
ltibia  -0 0 55.29909897
lfoot  -0 7.178599834 -13.48919964
ltoes  -4.250644065 -19.5611806 -102.515957
144
root  4.868911007 36.98488971 9.403622244 3.916992188 -5.498001099 -5.181030273
lowerback  10.8366003 3.713239908 -3.349109888
upperback  3.312639952 4.33302021 -6.266329765
thorax  -2.351589918 2.165479898 -5.221079826
lowerneck  -2.092989922 1.097370028 -13.29380035
upperneck  8.197110176 0.9579100013 15.7723999
head  2.559200048 0.62361902 7.116919994
lclavicle  0 -9.442270133e-015 7.951389973e-016
lhumerus  20.91449928 -45.5530014 66.77390289
lradius  5.539964522e-032 -3.487396159e-031 99.02639771
lwrist  -1.412450015e-030 -1.765562519e-031 10.16429996
lhand  -1.496451383e-031 -27.76390076 20.11240005
lfingers  90 7.125020027 -90
lthumb  89.89689403 5.08795885 91.16245106
rclavicle  0 -9.442270133e-015 7.951389973e-016
rhumerus  22.62549973 -4.0488801 -32.57320023
rradius  -8.489932907e-032 3.427543498e-031 103.9120026
rwrist  0 -1.765562519e-031 -11.47990036
rhand  -7.920061211e-032 -33.2840004 9.303460121
rfingers  -90 -7.125020027 -90
rthumb  -92.93752616 -24.25625642 -97.11982154
rfemur  6.037620068 4.38710022 23.42340088
rtibia  -0 0 51.30179977
rfoot  -0 -16.01110077 -10.79759979
rtoes  5.373923086 19.29304026 -105.8922705
lfemur  -53.84120178 -11.91749954 6.208799839
ltibia  -0 0 55.76839828
lfoot  -0 6.974629879 -13.37349987
ltoes  -4.250644065 -19.5611806 -102.515957
145
root  4.81511101 36.93533469 9.435088991 3.721008301 -5.266998291 -4.960998535
lowerback  11.6182003 4.356999874 -2.717010021
upperback  3.341599941 5.183939934 -6.793469906
thorax  -2.583790064 2.593280077 -6.315750122
lowerneck  -1.348320007 0.7678899765 -13.14970016
upperneck  8.15530014 0.4060739875 16.07780075
head  2.500780106 0.3360590041 7.17471981
lclavicle  0 -9.442270133e-015 7.951389973e-016
lhumerus  18.0904007 -45.6012001 68.14959717
lradius  6.331315034e-032 -3.473901055e-031 100.3290024
lwrist  -7.062250077e-031 -3.531125038e-031 10.54950047
lhand  -1.496451383e-031 -27.76390076 20.11240005
lfingers  90 7.125020027 -90
lthumb  89.89689403 5.08795885 91.16245106
rclavicle  0 -9.442270133e-015 7.951389973e-016
rhumerus  28.50959969 -5.360169888 -31.11829948
rradius  -2.77792306e-032 3.52018117e-031 94.51210022
rwrist  0 -0 -9.502849579
rhand  -7.920061211e-032 -33.2840004 9.303460121
rfingers  -90 -7.125020027 -90
rthumb  -92.93752616 -24.25625642 -97.11982154
rfemur  6.257599831 3.537899971 23.37199974
rtibia  -0 0 50.9612999
rfoot  -0 -18.10810089 -13.74279976
rtoes  5.373923086 19.29304026 -105.8922705
lfemur  -53.97660065 -12.30130005 6.051949978
ltibia  -0 0 56.24319839
lfoot  -0 6.599480152 -13.44169998
ltoes  -4.250644065 -19.5611806 -102.515957
